<?xml version="1.0" encoding="UTF-8"?>
<svg width="56px" height="56px" viewBox="0 0 56 56" version="1.1" xmlns="http://www.w3.org/2000/svg" xmlns:xlink="http://www.w3.org/1999/xlink">
    <!-- Generator: Sketch 48.1 (47250) - http://www.bohemiancoding.com/sketch -->
    <title>Group</title>
    <desc>Created with Sketch.</desc>
    <defs></defs>
    <g id="Artboard" stroke="none" stroke-width="1" fill="none" fill-rule="evenodd" transform="translate(-12.000000, -32.000000)">
        <g id="Group" transform="translate(10.000000, 30.000000)">
            <polygon id="Rectangle-Copy-3" points="0 0 60 0 60 60 0 60"></polygon>
            <path d="M24.4344,42 C35.7552,42 41.9472,32.7657632 41.9472,24.7578747 C41.9472,24.4955921 41.9472,24.234491 41.9292,23.9745713 C43.1337976,23.1167311 44.1736266,22.0545677 45,20.8378136 C43.8766549,21.3278824 42.6849951,21.6492693 41.4648,21.7912461 C42.7496928,21.0339136 43.7113482,19.8427607 44.1708,18.4394639 C42.962589,19.1453293 41.6407753,19.642788 40.2624,19.9103729 C38.3544993,17.9130017 35.3228632,17.4241381 32.8674591,18.7179087 C30.412055,20.0116793 29.14353,22.7663297 29.7732,25.4372102 C24.8242749,25.1929442 20.2133709,22.8915608 17.088,19.1058034 C15.4543473,21.8747096 16.2887855,25.4169594 18.9936,27.1952122 C18.0140894,27.16663 17.0559352,26.9064807 16.2,26.4367194 C16.2,26.4615299 16.2,26.4875219 16.2,26.5135139 C16.2008018,29.3981412 18.2661018,31.8826686 21.138,32.4538596 C20.2318435,32.6971681 19.2810967,32.7327349 18.3588,32.5578275 C19.1651375,35.0263824 21.4758895,36.7174682 24.1092,36.7661631 C21.929682,38.4526069 19.2372714,39.3681099 16.4652,39.3653598 C15.9754843,39.3644342 15.4862449,39.3352416 15,39.2779322 C17.8147631,41.0563458 21.0898961,41.9996656 24.4344,41.9952742" id="Shape-Copy" fill="#2B5FF4" fill-rule="nonzero"></path>
        </g>
    </g>
</svg>