<?xml version="1.0" encoding="UTF-8"?>
<svg width="25px" height="20px" viewBox="0 0 25 20" version="1.1" xmlns="http://www.w3.org/2000/svg" xmlns:xlink="http://www.w3.org/1999/xlink">
    <!-- Generator: Sketch 48.1 (47250) - http://www.bohemiancoding.com/sketch -->
    <title>Group 13</title>
    <desc>Created with Sketch.</desc>
    <defs></defs>
    <g id="Check-balance" stroke="none" stroke-width="1" fill="none" fill-rule="evenodd" transform="translate(-693.000000, -213.000000)">
        <g id="Group-3" transform="translate(232.000000, 67.000000)" fill="#2B5FF4">
            <g id="Group-5" transform="translate(0.000000, 21.000000)">
                <g id="Group-4" transform="translate(20.000000, 88.000000)">
                    <g id="Group-12" transform="translate(0.000000, 22.000000)">
                        <g id="Group-13" transform="translate(441.000000, 15.000000)">
                            <path d="M12.5,0 C7.91008556,0 4.038345,3.21075623 2.95138889,7.53303965 L0,7.53303965 L4.28819444,13.5770925 L8.57638889,7.53303965 L5.57291667,7.53303965 C6.57166611,4.62862322 9.28985194,2.55506608 12.5,2.55506608 C14.7180619,2.55506608 16.6990503,3.54966978 18.0381944,5.11894273 L19.5399306,3.01321586 C17.7512481,1.15397385 15.2540594,0 12.5,0 Z M20.7118056,6.41409692 L16.4236111,12.4581498 L19.4184028,12.4581498 C18.4241097,15.3672281 15.7131028,17.4449339 12.5,17.4449339 C10.2841225,17.4449339 8.29669222,16.4572873 6.953125,14.8898678 L5.46006944,16.9867841 C7.25021861,18.8453475 9.74506583,20 12.5,20 C17.0928622,20 20.9580833,16.7846332 22.0399306,12.4581498 L25,12.4581498 L20.7118056,6.41409692 Z" id="Shape"></path>
                        </g>
                    </g>
                </g>
            </g>
        </g>
    </g>
</svg>